<svg width="157" height="62" viewBox="0 0 157 62" fill="none" xmlns="http://www.w3.org/2000/svg">
<ellipse cx="102" cy="31.5" rx="20" ry="19.5" fill="#F2C94C"/>
<path d="M37.6543 22.1836H29.4277V45H26.0703V22.1836H17.8613V19.4062H37.6543V22.1836ZM44.4746 45H41.2227V25.9805H44.4746V45ZM40.959 20.9355C40.959 20.4082 41.1172 19.9629 41.4336 19.5996C41.7617 19.2363 42.2422 19.0547 42.875 19.0547C43.5078 19.0547 43.9883 19.2363 44.3164 19.5996C44.6445 19.9629 44.8086 20.4082 44.8086 20.9355C44.8086 21.4629 44.6445 21.9023 44.3164 22.2539C43.9883 22.6055 43.5078 22.7812 42.875 22.7812C42.2422 22.7812 41.7617 22.6055 41.4336 22.2539C41.1172 21.9023 40.959 21.4629 40.959 20.9355ZM52.7539 25.9805L52.8418 28.0898C54.2363 26.4492 56.1172 25.6289 58.4844 25.6289C61.1445 25.6289 62.9551 26.6484 63.916 28.6875C64.5488 27.7734 65.3691 27.0352 66.377 26.4727C67.3965 25.9102 68.5977 25.6289 69.9805 25.6289C74.1523 25.6289 76.2734 27.8379 76.3438 32.2559V45H73.0918V32.4492C73.0918 31.0898 72.7812 30.0762 72.1602 29.4082C71.5391 28.7285 70.4961 28.3887 69.0312 28.3887C67.8242 28.3887 66.8223 28.752 66.0254 29.4785C65.2285 30.1934 64.7656 31.1602 64.6367 32.3789V45H61.3672V32.5371C61.3672 29.7715 60.0137 28.3887 57.3066 28.3887C55.1738 28.3887 53.7148 29.2969 52.9297 31.1133V45H49.6777V25.9805H52.7539Z" fill="black"/>
<path d="M136.654 28.8984C136.162 28.8164 135.629 28.7754 135.055 28.7754C132.922 28.7754 131.475 29.6836 130.713 31.5V45H127.461V25.9805H130.625L130.678 28.1777C131.744 26.4785 133.256 25.6289 135.213 25.6289C135.846 25.6289 136.326 25.7109 136.654 25.875V28.8984Z" fill="black"/>
<line x1="101.538" y1="30.8096" x2="108.538" y2="13.8096" stroke="black"/>
<line x1="102" y1="30.5" x2="111" y2="30.5" stroke="black"/>
<line x1="101.452" y1="30.7871" x2="109.452" y2="47.7871" stroke="#EB5757"/>
</svg>
